/* XPM */
static const char * test_x_xpm[] = {
"48 56 25 1",
" 	c #000200",
".	c #030026",
"+	c #0E110D",
"@	c #2C0440",
"#	c #181B17",
"$	c #030FD8",
"%	c #A20014",
"&	c #253100",
"*	c #2B2D2B",
"=	c #BA06AB",
"-	c #563900",
";	c #F205DE",
">	c #444848",
",	c #006602",
"'	c #095D5C",
")	c #A03E3D",
"!	c #018C49",
"~	c #6C6F71",
"{	c #B46062",
"]	c #D39B00",
"^	c #9A9D9C",
"/	c #A6A716",
"(	c #5BBF23",
"_	c #5DBBB2",
":	c #C9D4D3",
",&+               **>>***#**                    ",
"+                                               ",
" ##* #+###+ *+##+*+##### *** *+#+#*++           ",
" ++# + +#++ +++#++++++++ +++ ++++++++           ",
" +         +      +  *+      +                  ",
" ****#*>>+>**#*#>******+>*+**##**#*             ",
" #*#+#+*+ **##+***#*#+*#*+                      ",
" **# +** * *##+>##> ++**#*+*#*#*****>+          ",
"                                                ",
" *+*#+##*#**#* #**#**** #+###+##                ",
" *>****>*>**>**>*>*#>>>#>>**#***********>>*#    ",
" +#+#+#*##+##+###++##* ## #+#+*+*+ *#++** +     ",
" ****#+++++ ++++++++++ ++ ++++ +++++++ +++      ",
" ++                                             ",
"      &&&               .    .                  ",
"      ,,,         ..  . ......                  ",
"      ,,,         ..@.@@..@.@.@.                ",
"      ,,,         $$$$$$$$$$$$$$                ",
"      ,,,                                       ",
"      ,,,         !!,,!,!!!!!!,,                ",
"      ,,,         ++++++++++++++                ",
"      ,,,         _____________'                ",
"      ,,,         ''''''''''''''                ",
"      ,,,         %%%%%%%%%%%%%)                ",
"      ,,,         %%%%%%%%%%%%%%                ",
"      ,,,         @@@@@@@@@@@@@@                ",
"      ,,,         =;;;;;;;;;;;;=                ",
"      ,,,                                       ",
"      ,,,         ){)))){{){{{))                ",
"      ,,,                 +                     ",
"      ,,,         ^^^^^^^^^^^^^^                ",
"      ,,,         >>>>>>>>>>>>>>                ",
"      ,,,         ~~~~~~~~~~~~~>                ",
"      ,,,         ~^~~^~^^^^^^~~                ",
"      ,,,         *>>>>>>>>>>>>*                ",
"      ,,,         __::_:______:_                ",
"      ,,,         +++++++++++++                 ",
"      ,,,         (((((((((((((,                ",
"      ,,,         #############+                ",
"      ,,,         ]]]]]]]]]]]]]]                ",
"      ,,,         --------------                ",
"      ,,,         //////////////                ",
"      ,,,         //////////////                ",
"      ,,,         >>>>>>>>>>>>>*                ",
"      ,,,         ^:::::^::::::^                ",
"      ,,,                                       ",
"                                                ",
"    #****+>* *+ #***##*#+* ++*##* *+            ",
"                                                ",
"                                                ",
"      **##                                      ",
"      ##*#                                      ",
"                                                ",
"                                                ",
"                                                ",
"                                                "};
